<svg xmlns="http://www.w3.org/2000/svg" viewBox="0 0 5120 5120" preserveAspectRatio="xMidYMid meet"><g fill="#2f307f"><path d="M1294 4046 c-3-8 29-128 71-267 42-138 74-258 71-265-3-7-47-33-98-58-91-44-272-155-264-163 2-2 28 6 57 18 83 33 263 84 369 105 142 27 468 25 644-5 310-54 585-172 811-350 263-205 437-432 540-704 39-101 40-134 5-123-65 20-66 20-24-20 l40-39 27-177 c15-98 28-183 29-190 6-27-44-16-169 37-72 30-136 55-143 55-7 0-9-8-5-22 4-13 9-30 11-39 3-9 76-66 162-127 87-61 163-117 169-124 6-7 16-47 22-88 6-41 16-90 22-108 14-41 49-58 87-40 34 17 40 63 18 149-27 103-26 107 89 284 105 161 116 189 97 238-6 14-28-3-117-93-60-60-117-110-127-110-19 0-20 4-63 180-39 162-42 202-16 243 24 39 15 58-12 26-31-36-49-18-62 61-12 70-73 256-116 351-22 48-39 94-39 103 0 16 78 294 218 781 108 374 135 475 127 483-9 9-631 9-641 0-4-4-40-142-81-305-41-164-79-303-85-310-7-9-37-13-85-13-66 0-87 5-177 44-149 64-175 73-283 100-100 25-235 45-332 49-36 1-57 7-62 17-4 8-29 103-55 210-25 107-51 201-56 208-8 9-78 12-290 12-234 0-280-2-284-14z"/></g><g fill="#3fa1d8"><path d="M1641 3179 c-41-5-78-12-82-16-8-8 14-90 86-323 24-80 61-199 81-265 20-66 83-275 140-465 58-190 132-437 165-550 34-113 76-254 94-315 19-60 43-142 54-181 l21-72 187-4 c102-2 251-2 330 1 137 3 145 4 153 25 4 11 29 93 54 181 25 88 113 398 196 689 85 298 148 536 145 547-4 10-12 25-18 31-7 7-32 40-56 73-61 82-149 173-251 260-94 79-128 101-140 88-4-4-24-80-44-168-32-143-194-797-248-997-16-62-24-78-39-78-21 0-17-12-89 290-28 118-69 289-90 380-127 531-136 571-127 594 7 16 19 17 146 11 168-9 434 2 428 18-2 6-52 35-113 66-289 147-667 216-983 180z"/></g></svg>